<?xml version="1.0" encoding="utf-8"?>
<!-- Generator: Adobe Illustrator 25.4.1, SVG Export Plug-In . SVG Version: 6.00 Build 0)  -->
<svg version="1.1" id="Capa_1" xmlns="http://www.w3.org/2000/svg" xmlns:xlink="http://www.w3.org/1999/xlink" x="0px" y="0px"
	 viewBox="0 0 32.6 40" style="enable-background:new 0 0 32.6 40;" xml:space="preserve">
<g>
	<path d="M23.9,3.7C16.4,2.1,9-0.1,1.2,0c-0.8,0-1.6,1-1,1.7c4.5,6,8.8,12,14,17.2c0.9,0.9,2.4,0,2.1-1.2c-0.6-2.3-1.1-4.7-1.3-7
		c0.8,1.1,13.2,7.8,14.2,12.4c1.2,6-0.2,10.6-6.7,12.9c-8,3.2-13.7,1.8-20.4-2.8c-0.7-0.4-1.1-0.3-0.5,0.3
		c9.6,9.7,22.3,6.1,26.4,3.1c3.9-2.4,6.2-11.4,3.2-16.2c-3.2-5-6-6.2-14.1-11.5C19.6,8.3,21.9,7.3,24,6C25.1,5.4,25,3.9,23.9,3.7z
		 M13.7,8.1c-0.5,0.4-0.4,0.9-0.1,1.3c0,0,0,0,0,0.1c-0.4,1.6-0.4,3.2-0.3,4.8C9.9,10.6,6.8,6.5,3.7,2.5c5.5,0.2,10.8,1.6,16.2,2.8
		C17.7,6.1,15.5,6.8,13.7,8.1z"/>
</g>
</svg>
